<?xml version="1.0" encoding="UTF-8" standalone="no"?>
<svg width="32px" height="32px" viewBox="0 0 32 32" version="1.1" xmlns="http://www.w3.org/2000/svg" xmlns:xlink="http://www.w3.org/1999/xlink">
    <!-- Generator: Sketch 41.2 (35397) - http://www.bohemiancoding.com/sketch -->
    <title>qr_icn</title>
    <desc>Created with Sketch.</desc>
    <defs>
        <rect id="path-1" x="18" y="0" width="14" height="14" rx="2"></rect>
        <mask id="mask-2" maskContentUnits="userSpaceOnUse" maskUnits="objectBoundingBox" x="0" y="0" width="14" height="14" fill="white">
            <use xlink:href="#path-1"></use>
        </mask>
        <rect id="path-3" x="0" y="0" width="14" height="14" rx="2"></rect>
        <mask id="mask-4" maskContentUnits="userSpaceOnUse" maskUnits="objectBoundingBox" x="0" y="0" width="14" height="14" fill="white">
            <use xlink:href="#path-3"></use>
        </mask>
        <rect id="path-5" x="0" y="18" width="14" height="14" rx="2"></rect>
        <mask id="mask-6" maskContentUnits="userSpaceOnUse" maskUnits="objectBoundingBox" x="0" y="0" width="14" height="14" fill="white">
            <use xlink:href="#path-5"></use>
        </mask>
    </defs>
    <g id="ICO_2017" stroke="none" stroke-width="1" fill="none" fill-rule="evenodd">
        <g transform="translate(-375.000000, -2090.000000)" id="Group-12">
            <g transform="translate(375.000000, 2061.000000)">
                <g id="qr_icn" transform="translate(0.000000, 29.000000)">
                    <use id="Rectangle-2" stroke="#FFFFFF" mask="url(#mask-2)" stroke-width="4" xlink:href="#path-1"></use>
                    <use id="Rectangle-2" stroke="#FFFFFF" mask="url(#mask-4)" stroke-width="4" xlink:href="#path-3"></use>
                    <rect id="Rectangle-2" fill="#FFFFFF" x="5" y="5" width="4" height="4" rx="1"></rect>
                    <rect id="Rectangle-2" fill="#FFFFFF" x="23" y="5" width="4" height="4" rx="1"></rect>
                    <rect id="Rectangle-2" fill="#FFFFFF" x="18" y="18" width="2" height="2"></rect>
                    <rect id="Rectangle-2" fill="#FFFFFF" x="18" y="30" width="2" height="2"></rect>
                    <rect id="Rectangle-2" fill="#FFFFFF" x="18" y="22" width="2" height="2"></rect>
                    <rect id="Rectangle-2" fill="#FFFFFF" x="18" y="26" width="2" height="2"></rect>
                    <rect id="Rectangle-2" fill="#FFFFFF" x="22" y="18" width="2" height="2"></rect>
                    <rect id="Rectangle-2" fill="#FFFFFF" x="22" y="30" width="2" height="2"></rect>
                    <rect id="Rectangle-2" fill="#FFFFFF" x="22" y="22" width="2" height="2"></rect>
                    <rect id="Rectangle-2" fill="#FFFFFF" x="22" y="26" width="2" height="2"></rect>
                    <rect id="Rectangle-2" fill="#FFFFFF" x="20" y="20" width="2" height="2"></rect>
                    <rect id="Rectangle-2" fill="#FFFFFF" x="20" y="24" width="2" height="2"></rect>
                    <rect id="Rectangle-2" fill="#FFFFFF" x="20" y="28" width="2" height="2"></rect>
                    <rect id="Rectangle-2" fill="#FFFFFF" x="26" y="18" width="2" height="2"></rect>
                    <rect id="Rectangle-2" fill="#FFFFFF" x="26" y="30" width="2" height="2"></rect>
                    <rect id="Rectangle-2" fill="#FFFFFF" x="26" y="22" width="2" height="2"></rect>
                    <rect id="Rectangle-2" fill="#FFFFFF" x="26" y="26" width="2" height="2"></rect>
                    <rect id="Rectangle-2" fill="#FFFFFF" x="24" y="20" width="2" height="2"></rect>
                    <rect id="Rectangle-2" fill="#FFFFFF" x="24" y="24" width="2" height="2"></rect>
                    <rect id="Rectangle-2" fill="#FFFFFF" x="24" y="28" width="2" height="2"></rect>
                    <rect id="Rectangle-2" fill="#FFFFFF" x="30" y="18" width="2" height="2"></rect>
                    <rect id="Rectangle-2" fill="#FFFFFF" x="30" y="30" width="2" height="2"></rect>
                    <rect id="Rectangle-2" fill="#FFFFFF" x="30" y="22" width="2" height="2"></rect>
                    <rect id="Rectangle-2" fill="#FFFFFF" x="30" y="26" width="2" height="2"></rect>
                    <rect id="Rectangle-2" fill="#FFFFFF" x="28" y="20" width="2" height="2"></rect>
                    <rect id="Rectangle-2" fill="#FFFFFF" x="28" y="24" width="2" height="2"></rect>
                    <rect id="Rectangle-2" fill="#FFFFFF" x="28" y="28" width="2" height="2"></rect>
                    <rect id="Rectangle-2" fill="#FFFFFF" x="5" y="23" width="4" height="4" rx="1"></rect>
                    <use id="Rectangle-2" stroke="#FFFFFF" mask="url(#mask-6)" stroke-width="4" xlink:href="#path-5"></use>
                </g>
            </g>
        </g>
    </g>
</svg>